<svg xmlns="http://www.w3.org/2000/svg" width="612" height="792" viewBox="0 0 612 792"><path d="M334.896 294.014c-1.096-.424-1.95-1.245-1.445-2.548.224-.572.616-1.134 1.177-1.7 1.14-1.185 2.74-1.712 4.482-2.046l.216-.658c.502-.254 1.01-.49 1.523-.712l.15.13c-.41 1.226-.962 2.68-1.68 4.53-.395 1.022-.696 1.802-.51 2.294.214.46.44.66 1.085.91l.152.06-.94 2.435-.155-.06c-1.348-.522-1.83-1.03-1.877-2.31-.776.02-1.51-.067-2.18-.326zm3.643-4.33c-1.868.2-3.2.68-3.394 1.18-.164.425.305.774.906 1.008.504.195 1.02.297 1.568.313.372-.963.68-1.823.92-2.5zm1.1-7.626c.31.694.528 1.367.663 1.994-.463.353-.984.626-1.555.826-.223-.66-.465-1.3-.72-1.945l1.61-.875zm2.354.786c.31.694.527 1.367.664 1.993-.465.353-.986.627-1.555.826-.223-.66-.467-1.3-.72-1.945l1.61-.874zM338.87 299.38c.255.716.42 1.404.505 2.04-.49.313-1.033.546-1.615.7-.17-.677-.363-1.334-.566-1.997l1.675-.744zm4.9-.35l-.136-.066c-.965-.464-1.762-1.108-1.81-2.45l-.03-.015c-.975.56-1.91.66-2.83.217l-.148-.07c-.51-.246-.447-.97-.176-1.534.27-.565.8-1.064 1.307-.82l.148.07c.71.343 1.17.36 1.633.295.775-.12 1.19-.848 1.684-1.276.334-.07.71-.15 1.143-.204l.04.106c-.366.433-.608.75-.722.985-.268.552-.32.96-.064 1.46.214.365.513.668.968.887l.127.062-1.134 2.35zm-2.616 1.32c.256.716.42 1.403.506 2.04-.49.313-1.033.545-1.615.7-.17-.677-.363-1.334-.566-1.997l1.674-.744zM344.42 301.926c.316.714.553 1.427.73 2.15-.538.436-1.106.73-1.704.892-.193-.645-.473-1.353-.787-2.095l1.76-.947zm5.518-8.37c-.076 1.808-.324 3.03-.73 3.76-.374.673-.86 1.283-1.573 1.843-.695.478-1.207.627-1.652.604-.605-.023-1.355-.246-2.29-.765l-.144-.08c-.493-.275-.39-.994-.087-1.542.305-.548.86-1.016 1.354-.742l.225.126c1.182.656 2.385.98 2.486.8.152-.275.258-1.725.285-2.89.723-.478 1.402-.878 2.035-1.197l.09.08zM354.27 305.43l-.168-.108c-.402-.263-.654-.566-.89-.875-.73 1.127-1.497 1.657-2.25 2.057-1.16.6-2.212.817-3.02.29-.727-.473-1.367-1.34-1.912-2.786l.574-.406c.28.386.547.622.764.763.826.538 1.777.628 2.8.39 1.08-.232 1.962-.748 2.515-1.34-.027-.796.033-1.707.225-2.734.61-.442 1.193-.842 1.754-1.163l.148.096c-.316 1.603-.354 2.824.748 3.542l.14.09-1.428 2.185zM360.703 306.506c.328.82.908 1.357 1.713 1.987l.13.102-1.61 2.054-.13-.102c-1.145-.9-1.933-1.914-2.288-3.784-1.992.047-3.193-.515-4.404-1.464l-.13-.102c-.444-.348-.23-1.04.157-1.534.386-.493 1.007-.867 1.452-.52l.396.312c.934.732 1.672 1.162 2.215 1.288l.033-.04c-.088-.633-.152-1.313-.205-2.083-.02-.297-.065-.582-.343-.8l-.232-.18-.002-.054 1.838-1.26c.704.452 1.825.833 3.267 1.964.953.746 1.703 1.616 2.207 2.574-.477.438-.97.88-1.494 1.28-.875.127-1.727.223-2.533.32l-.034.042zm1.764-1.336c-.322-.484-.72-.947-1.285-1.39-.61-.478-1.186-.83-1.664-1.038l-.04.052c.114.9.27 1.77.495 2.492.746.038 1.55.004 2.453-.065l.04-.05zM371.857 302.664c-.576.64-.953 1.724-1.375 3.453l-1.37-.042c-.64.777-1.442 1.704-2.3 2.654-.78.86-1.504 1.4-2.254 1.85-.447.265-.9.487-1.363.633-.803.206-1.598.14-2.38-.57l-.124-.11c-.417-.377-.153-1.054.267-1.52.42-.465 1.064-.795 1.484-.417l.122.11c.56.504 1.09.773 1.596.72.297-.03.54-.302 1.014-.824 2.178-2.413 3.83-4.824 4.268-5.31.324-.357.674-.604 1.05-.687s.802-.136 1.335-.112l.032.17zM364.82 314.546c.732-.578 1.436-1.242 2.314-2.136 1.98-2.01 3.86-4.095 5.666-6.33.775-.118 1.48-.195 2.135-.227l.06.224c-1.81 2.175-3.634 4.08-5.41 5.886-1.437 1.46-2.474 2.364-2.97 2.5-.523.18-1.107.32-1.758.413l-.037-.33zM373.28 318.92c1.685-.685 2.995-.88 3.776.074.678.826.61 2.02.025 3.49-.362.875-.84 1.648-1.405 2.112-.445.365-1.21.627-2.156.83-.815-1.322-1.34-2.124-1.927-2.842-.408-.5-.89-.818-1.355-.83-1.604 1.544-3.75 5.04-4.547 5.694-.433.356-1.13.762-2.132 1.25l-.15-.226c1.834-1.962 3.764-5.766 5.336-7.058.363-.3.857-.582 1.508-.858.49-.205 1.105-.36 1.834-.398l1.195-1.238zm-.237 1.563c.328.173.617.422.877.74.357.435.734 1.037 1.1 1.71l.086-.04c.375-1.25.357-2.24-.172-2.884-.148-.183-.312-.32-.48-.398l-.14.116c-.172.14-.44.347-.732.526l-.53.177-.01.053zM386.8 319.368c-.694.512-1.278 1.498-2.036 3.108l-1.336-.313c-.78.635-1.752 1.382-2.78 2.142-.937.69-1.755 1.075-2.58 1.363-.49.172-.98.3-1.462.35-.83.043-1.596-.18-2.225-1.03l-.097-.133c-.336-.453.057-1.064.56-1.437s1.204-.567 1.54-.113l.098.132c.448.604.917.975 1.425 1.023.297.03.592-.188 1.158-.606 2.613-1.93 4.713-3.963 5.238-4.35.39-.288.782-.46 1.167-.467s.814.026 1.332.155v.176zM379.438 332.14l-.11-.167c-.896-1.323-.794-2.782 1.296-4.236 1.23-.843 4.35-3.08 6.84-5.13.676.067 1.332.176 1.957.308l.017.188c-1.453 1.208-3.213 2.426-4.73 3.45-1.134.767-1.722 1.135-2.608 1.733-1.083.73-1.187 1.37-.59 2.255l.093.138-2.165 1.46zM385.154 335.546c.006.883.352 1.594.87 2.472l.085.142-2.247 1.33-.084-.14c-.74-1.254-1.106-2.484-.76-4.355-1.872-.678-2.788-1.636-3.57-2.96l-.085-.14c-.287-.485.166-1.054.705-1.373s1.254-.443 1.54.042l.26.435c.603 1.02 1.134 1.687 1.595 2l.045-.025c.148-.62.336-1.277.566-2.015.09-.285.15-.566-.03-.87l-.15-.252.017-.05 2.172-.51c.492.678 1.398 1.44 2.33 3.014.617 1.04 1 2.123 1.12 3.198-.604.235-1.226.467-1.858.65-.86-.198-1.69-.418-2.477-.62l-.046.026zm2.13-.605c-.126-.567-.33-1.143-.694-1.76-.395-.665-.803-1.2-1.172-1.57l-.057.034c-.22.882-.39 1.747-.444 2.502.682.306 1.44.564 2.31.828l.057-.033zM396.938 335.943c-.768.393-1.504 1.27-2.512 2.738l-1.266-.524c-.873.5-1.955 1.08-3.092 1.663-1.033.53-1.904.777-2.766.928-.51.09-1.014.138-1.498.108-.824-.093-1.543-.437-2.025-1.377l-.075-.147c-.258-.502.23-1.04.785-1.327.56-.285 1.28-.365 1.537.137l.074.146c.345.668.745 1.108 1.237 1.24.29.075.615-.09 1.242-.412 2.89-1.482 5.29-3.148 5.872-3.446.43-.22.844-.326 1.225-.27.38.055.8.156 1.287.368l-.026.173zM386.16 344.577c.89-.284 1.78-.66 2.914-1.188 2.555-1.19 5.047-2.482 7.518-3.944.768.162 1.45.335 2.078.536l-.02.23c-2.458 1.403-4.83 2.548-7.126 3.616-1.855.865-3.143 1.348-3.652 1.3-.555-.014-1.15-.086-1.79-.228l.078-.323zM397.42 353.42c-1.41 1.596-2.34 2.37-3.346 2.732-.578.21-.914.28-1.146.365-1.18.426-2.344.622-3.51.47-1.566-.222-2.635-.797-2.98-1.758-.307-.852-.336-2.165-.023-3.414l.73-.025c.02.367.1.75.25 1.158.325.906 1.24 1.637 2.452 2.147 1.107.45 2.12.607 2.516.465.44-.16 1.15-.89 2.537-2.59.848.043 1.688.14 2.445.24l.075.21zM396.406 364.894l-2.51.72-.242-.846c-2.406.177-5.12-.583-5.625-2.345-.292-1.016-.12-2.263.44-3.72l.738.07c-.08.475-.102.97.043 1.478.28.972 1.065 1.772 2.103 2.453.705.47 1.393.785 1.955.855l-.09-.315c-.62-2.157-.264-3.81 1.994-4.46.914-.262 1.824-.217 2.74.143.87.337 1.447.83 1.635 1.486.363 1.265-.922 2.513-3.402 3.714l.22.768zm.983-4.436c-.208-.723-.93-.968-1.243-.878-.73.21-.875 1.498-.45 2.977.044.158.1.302.163.43 1.134-.78 1.777-1.66 1.53-2.53zM402.066 366.596c-1.398 1.15-2.473 1.78-3.287 1.967-.75.17-1.532.216-2.425.058-.82-.197-1.273-.48-1.553-.826-.387-.467-.723-1.174-.96-2.216l-.036-.16c-.125-.55.48-.954 1.09-1.093.61-.14 1.33-.038 1.455.512l.058.253c.3 1.317.86 2.43 1.066 2.385.305-.07 1.455-.958 2.34-1.715.84.22 1.59.458 2.252.717v.12zm3.684-2.104c-.32.712-.693 1.363-1.115 1.978-.682-.11-1.28-.335-1.8-.675.35-.574.69-1.254 1.034-1.983l1.88.68zM403.582 380.223c.31-.594.385-1.16.322-1.684-.145-1.18-1.166-2.237-1.44-2.204-.413.05-.817.5-1.214 1.034-.332.514-.512.974-.48 1.253.04.314.933 1.496 2.105 3.566l-.088.128c-.812-.08-1.64-.168-2.432-.32-1.834-3.504-3.697-5.312-5.03-5.15-1.634.197-2.817 2.353-2.4 5.78.108.897.294 1.762.563 2.57l-.277.21c-1.077-.863-1.98-1.688-2.632-2.508-.207-.413-.29-.888-.352-1.377-.35-2.88.85-5.332 4.115-5.73 1.386-.167 2.872.16 4.503 1.135.594-.96 1.348-1.678 2.436-1.81.645-.078 1.378-.002 2.313.334 1.13.42 2.02 1.27 2.143 2.272.12.99-.477 1.915-1.686 2.783l-.468-.284zM399.99 392.792l-2.605.12-.04-.88c-2.382-.386-4.847-1.755-4.93-3.586-.048-1.056.41-2.23 1.29-3.516l.703.238c-.19.443-.324.92-.3 1.448.046 1.01.624 1.97 1.476 2.872.576.62 1.172 1.087 1.703 1.286l-.014-.328c-.104-2.24.625-3.768 2.97-3.875.952-.042 1.825.212 2.634.774.77.53 1.215 1.144 1.246 1.824.06 1.314-1.48 2.23-4.168 2.824l.035.8zm1.983-4.087c-.035-.75-.68-1.157-1.006-1.142-.756.034-1.195 1.254-1.125 2.79.006.165.027.317.06.457 1.282-.494 2.112-1.202 2.07-2.105zM397.06 404.602l.005-.164c.043-1.314.402-2.254 1.29-2.623v-.047c-.786-.66-1.155-1.342-1.132-2.023.02-.645.402-1.078 1.152-1.264l.002-.06c-.684-.656-1.068-1.2-1.043-1.973.02-.586.297-1.035 1.033-1.222-.615-.737-.94-1.57-.908-2.475l.005-.164c.018-.563.705-.798 1.332-.777.627.02 1.295.302 1.277.865l-.006.164c-.033.984.152 1.66.516 2.12.275.36.762.636 1.35 1.056.172.31.344.657.486 1.04l-.135.124c-.676-.458-1.268-.76-1.672-.774-.482-.017-.674.212-.686.588-.018.528.205.864.47 1.13.495.476 1.054.577 1.67.903.196.324.343.623.49.97l-.136.09c-.76-.32-1.403-.59-1.755-.603-.56-.018-.828.184-.842.56-.02.563.244.925.625 1.208.46.344 1.186.486 1.818.72.21.3.424.6.607.96l-.094.08c-.7-.225-1.257-.373-1.687-.387-.914-.03-1.377.564-1.422 1.902l-.005.164-2.606-.088zM394.46 407.627c-.59.48-1.18.87-1.75 1.164-.46-.354-.862-.788-1.204-1.284.578-.39 1.133-.79 1.688-1.205l1.267 1.327zm.142-2.48c-.59.48-1.182.87-1.75 1.165-.46-.355-.863-.787-1.205-1.285.578-.39 1.133-.79 1.688-1.205l1.267 1.326zm9.798 2.953c-1.693.637-2.914.887-3.746.8-.766-.08-1.52-.288-2.312-.726-.715-.453-1.053-.865-1.205-1.283-.217-.565-.307-1.343-.195-2.407l.018-.164c.06-.562.76-.747 1.383-.683s1.27.393 1.213.953l-.025.258c-.14 1.344.032 2.58.24 2.602.312.03 1.687-.438 2.77-.87.724.48 1.358.946 1.9 1.405l-.04.115zM396.094 417.607c.234-1.152.898-2.133 2.266-1.855.602.12 1.22.416 1.875.87 1.357.925 2.146 2.415 2.768 4.077l.686.103c.333.45.65.912.956 1.38l-.102.173c-1.277-.2-2.8-.496-4.744-.89-1.074-.22-1.893-.386-2.346-.118-.418.287-.576.543-.715 1.223l-.032.163-2.56-.52.034-.16c.287-1.418.707-1.98 1.96-2.242-.154-.76-.19-1.5-.048-2.203zm4.88 2.86c-.513-1.807-1.21-3.04-1.733-3.145-.446-.092-.712.43-.84 1.064-.108.53-.122 1.055-.044 1.598 1.01.205 1.908.364 2.617.483zm7.317 2.252c-.632.423-1.257.753-1.85.99-.427-.397-.784-.864-1.077-1.392.613-.332 1.203-.68 1.795-1.04l1.133 1.44zm.378-2.454c-.63.424-1.258.752-1.852.992-.426-.398-.783-.867-1.076-1.395.613-.332 1.203-.68 1.795-1.04l1.133 1.443zM390.938 433.453l.045-.158c.37-1.262.95-2.084 1.902-2.223l.012-.045c-.598-.836-.787-1.588-.596-2.242.183-.62.66-.947 1.433-.94l.016-.056c-.5-.808-.74-1.43-.52-2.173.163-.564.542-.932 1.304-.93-.414-.867-.52-1.754-.268-2.623l.047-.158c.158-.54.88-.6 1.482-.424s1.182.615 1.023 1.156l-.047.158c-.276.947-.263 1.648-.024 2.184.176.418.58.805 1.043 1.357.09.344.17.723.214 1.127l-.162.088c-.54-.61-1.04-1.05-1.428-1.164-.463-.135-.703.04-.81.4-.147.508-.015.89.175 1.213.36.585.876.82 1.392 1.29.11.363.18.69.234 1.06l-.152.054c-.656-.498-1.215-.918-1.553-1.018-.538-.156-.847-.027-.952.334-.158.54.006.957.305 1.326.36.447 1.027.764 1.582 1.146.13.344.262.69.352 1.082l-.11.053c-.622-.39-1.124-.67-1.538-.79-.878-.257-1.474.204-1.85 1.49l-.046.157-2.506-.73zM387.44 435.795c-.69.318-1.36.545-1.985.686-.357-.458-.637-.978-.842-1.544.658-.23 1.295-.48 1.936-.742l.89 1.6zm.76-2.363c-.69.318-1.36.545-1.985.688-.357-.46-.637-.98-.842-1.545.656-.23 1.295-.482 1.936-.742l.89 1.6zm.79 4.85l.053-.144c.375-1.002.945-1.854 2.277-2.02l.012-.033c-.645-.92-.83-1.842-.47-2.8l.056-.153c.197-.527.924-.53 1.512-.312.586.22 1.13.7.934 1.23l-.06.153c-.274.736-.25 1.197-.144 1.65.19.762.95 1.11 1.422 1.562.102.326.215.695.307 1.117l-.103.05c-.465-.323-.803-.538-1.047-.63-.574-.215-.986-.23-1.46.068-.345.246-.618.57-.796 1.043l-.05.133-2.444-.915zM386.89 443.158l.06-.14c.422-.983 1.033-1.808 2.37-1.91l.013-.032c-.6-.947-.74-1.877-.338-2.816l.066-.15c.224-.518.948-.486 1.524-.24.576.248 1.098.754.875 1.27l-.065.15c-.312.724-.31 1.185-.225 1.644.154.77.898 1.152 1.348 1.627.086.333.18.706.252 1.134l-.104.043c-.45-.346-.775-.576-1.016-.678-.564-.245-.975-.28-1.463-.005-.355.23-.645.54-.844 1.006l-.057.13-2.397-1.032zm10.385.963c-.678.388-1.363.694-2.066.94-.487-.49-.84-1.025-1.06-1.605.623-.256 1.3-.605 2.004-.992l1.12 1.658zM392.994 449.383c-2.305.82-3.383.846-4.736.17-.69-.344-1.303-.898-1.86-1.56-.784-.942-.6-2.597.534-4.868l.072-.146c.252-.507.975-.435 1.535-.155.56.28 1.052.814.8 1.318l-.074.148c-1.05 2.103-1.39 3.747-.863 4.01.98.49 3.05-.237 5.713-1.573.594.125 1.12.297 1.576.523.77.385 1.18.996 1.19 1.908.038 1.385-.142 3.764-.454 6.55l-.12.032c-.505-.594-1.005-1.225-1.485-1.87.273-2.097.438-3.972.45-5.606l-.07-.035c-.546.657-1.036 1.32-1.483 1.95l-.726-.797z"/><g fill-rule="evenodd" clip-rule="evenodd" fill="#B3B3B3"><path d="M265.255 363.942l.11 2.172v.724l.112.265.166.327.386.397.22.262.276.262.222.197.275.198.22.262.167.33.22.328.112.33.055.462v.46l2.818 2.502-1.492 11.72-1.492 2.83v.195l-.22.595-.22.33-.276.326-.332.33-.332.266-.44.262-.388.33-.388.264-.386.26-.332.33-.276.265-.222.393-.165.265-.11.393.055.396-6.078 2.965.11.393-.054.33-.166.392-.222.398-.275.395-.167.396-.166.33-.055.328.055.33.22.326.278.33.276.2.276.132.222.13.275.132 2.488 1.713v.264l.11.725.054.456.11.398.11.328.166.33.222.327.166.264.165.266.44.525.333.46.33.33.112.263.995 2.436-.112.197-.11.66-.165.525-.166.46-.11.53-.167.46-.22.46-.222.463-.165.525-.276.395-.222.33-.222.33-.33.195-.277.264-.332.13-.33.07-.332-.07-.276-.197-.277-.328-.222-.394-.22-.395-.278-.46-.33-.395-.386-.332-.223-.13-.44-.263-.387-.133-.332-.13-.386-.134-.332-.195-.33-.13-.387-.2-.333-.132-.33-.195-.332-.197-.33-.33-.278-.33-.33-.33-.222-.46-.222-.46-7.128-2.502-.22-.067-.388-.262-.275-.265-.387-.395-.22-.46-.223-.528-.22-.46-.165-.263-.112-.33-.165-.33-.22-.262-.222-.394-2.598-1.582 24.81-37.394zM241.22 401.863l-2.21-1.515-.112-.395-.496-.986-.332-.526-.773-.657-.774-.398-.83.133-.772.394-.662.79-.553 1.052-.166.594-1.105 2.57-.112.525-.22.66-.222.526-.275.59-.277.53-.44.59-.443.463-.056-.397-.11-1.12-.11-.79-.057-.726-.11-.788-.056-.79-.11-.79-.056-.79-.053-.788-.055-.79-.057-.792v-.79l-.054-.79-.054-.722v-1.584l.055-3.486.167-3.426.607-6.847.994-6.583 1.438-6.387 1.713-6.188 2.153-5.992 2.43-5.73 2.875-5.462 3.093-5.202 3.428-4.936 3.7-4.543 4.035-4.28 4.31-3.884 4.53-3.62 4.81-3.162 5.027-2.83 16.962 1.976-.717.92-1.658.2-1.934-.2-1.934-.395-.72.593.222.987.552.396.884.59.663.593.443.855-.166.988-4.64 2.503-.608.986-.056.725.275.592.386.593 1.106 1.053.22.92 4.698 2.504.386 1.317v.92l.552 1.185.222 1.713h-3.316l-.663-2.238-.83-1.25-.66-.79-.442-1.253-2.707-2.37-.607-.526-.222-.593-.386-1.12-.61-.395-.826-.395-.774-.593-.663-1.12-3.59-.393.165 1.908-.442 1.053-.775.463h-2.54l-1.493.13-1.325.462-1.216.987-2.818 2.305-.055 1.91.277 1.315.718.724.775.33.717-.527.774.527h3.094l1.217-.79.718.855 4.034 3.358.83 1.12.33 1.58.498 1.118.884 1.316 2.32 2.305-.497.854-.607.13-.72-.26-.496-.79-3.314-.263.054 1.315-.498 1.713-.44 1.252-.443 1.053-3.757 2.105-.332 1.32v1.25l.443 1.58.607 1.184.22 2.174 5.693 7.44.552 2.502.11 1.645-.332 1.317h-2.54v-.857l.11-1.974-.167-1.385-.607-1.25-2.928-2.304.11-1.052-.553-.792-.718.46-.884.133-.387-.66-.165-1.974-1.326-1.646h-8.232l.053.527.333 1.186.385.59.5.33.497.263.608.133.552.13H262.55l.605.066.553.132.497.13.775.66.165.592.054.79.165 2.042-24.146 36.34zM281.445 350.313l3.98-.658.054-.198.053-.592-.11-.265-.33-.392-.222-.135-.22-.065h-1.326l-.33.065-.334.068h-.717l-.387-.132h-.277l-.22-.13-.277-.065-.277-.133h-.332l-.22-.066h-.554l-.33.066-.277.328-.055.592.055 1.977.055.526.055.462.166.79.11.657.11.46.165.265.332.263.387-.263.166-.33.166-.328.165-.462.223-.528.166-.525.22-.593.165-.66zM284.373 355.514v-.46l.056-.462v-.79l-.112-.593-.11-.46-.11-.33-.387-.263h-.22l-.442.46-.222.33-.22.33-.167.526-.11.526-.11.592v.592l-2.046 2.766v.262l-.166.593-.11.394-.11.263-.167.33-.11.264-.33.526-.277.46-.11.33-.11.33-.112.395-.054.46-.055.46v.594h3.594l1.657-5.662.663-2.766zM253.375 409.303l-.772 5.267.497 2.698.994 2.24 2.376 2.504 3.59 2.896-.22 3.092.387 2.305-1.99.26-.385-2.63-1.216-1.12-.995-2.237-2.652-2.566-1.325-2.307-.774-2.37-.388-2.765.056-2.37-1.05-2.764.166-2.174 3.7 2.04zM269.123 430.305h-3.48l-2.432-3.225-.827-3.357 5.69-1.32 1.16-2.235.72-1.186-.166-2.17 2.87.522.5 1.715-.442 2.565.332 2.963-.72 2.568-1.05.723-2.154 2.435zM252.38 431.688l1.935 3.554 1.38 2.24 7.074 1.317 6.298-1.255-1.603-1.71-1.656.265-1.44-.657-.883.59-.883.858-1.88-1.382-1.768-1.188-.938-1.84-2.377-1.253-3.26.46zM304.266 437.81l-1.327-2.105-1.106-3.226-1.38-.132-.61 5.53h-4.64l-.388-2.37-.33-3.426-6.08-.197-.607.724.386 1.12-.387 1.184-.167 1.514-.607 1.117-.332-1.84-.72-.66-.882.197-.884 1.186-.884 1.45-1.27 1.38.165 1.846-.166.92-.885.658-.83 1.054-4.254 2.567-.498 2.238v5.993l.773 2.305.444 2.568.442 2.303.718 1.12v1.117l.774 1.186.662 1.187.72.196.94-1.184.994-.924 1.05-.79 1.38-.13 1.768-.79.83-.858h6.463l.553.66 1.382 1.186.883-.33h.664v.855l-.552.464.22 1.05.663.596.22.987h9.395l.662-1.713.995-1.647.774-1.314 1.492-2.9.553-4.74-.444-2.434-1.16-2.242-1.05-2.5-1.932-2.963-.94-1.447-.94-1.846-.332-1.777-.386-1.974zM292 419.838l.66-.594 3.428 1.055.552 1.315-.277 1.25 3.648 1.912.775 1.118.717.396 3.15.987-.166-1.382 1.77.986.883.99.882.593.885.92.166.922h3.148l-.993-1.25-.995-1.713-.773-2.5-1.05-2.7-1.05-1.58-2.32-1.71-3.647-1.715H291.39l.61 2.7zM319.13 474.812v-1.582l-.553-1.248h-.72l-1.27 1.05-1.16 1.583-2.488 1.975-.275 1.117.274 1.45.884.527 1.437-.66 1.218-1.446.715-1.385 1.936-1.38zM311.505 475.47l-.388 3.028-.387 1.053-1.216.464-1.05-.2-.055-1.25.663-.79.772-2.305h1.66zM364.768 452.033l.942-1.385.936-1.382 1.77-2.897 1.712-2.962 1.66-3.096 1.49-3.093 1.435-3.228 1.272-3.29 1.16-3.36 1.108-3.424.935-3.488.833-3.49.717-3.622.608-3.62.5-3.686.33-3.754.166-3.817-.885-1.055.224-2.105-5.032-1.317-2.1-1.974-1.878-.2-.993-.987-1.55-3.03h-9.337l-.717 1.515-.885 2.437-.608-1.45.165-.987-1.435-.327-1.657-1.844-6.465.396 1.05 1.58 2.042 1.117.996.462 1.27-.463 1.272.462.94 1.58-1.105 2.83v2.37l-1.27 2.5-.83 3.23-1.106 2.5-.33 1.974.716 2.7-.553 1.974.167 1.12.61 1.448 2.43 2.637.497 1.84.938 1.055.388 1.582 1.712 3.027 1.44 1.84 1.545.856 1.27.66.72 2.17.77 4.282-.385 2.634.22 5.135-.937 2.108 1.16 4.015-.057 3.293zM308.385 305.105h-4.42l-1.873.155h-1.87l-2.045.314-2.127.31-2.04.315-2.215.315-2.125.47-2.128.467-2.128.474-2.042.625-1.955.625-1.79.63-1.7.625-1.53.627-1.364.78 16.646 2.058 26.757-1.247 18.54-.81-.938-.47-.934-.47-1.788-.782-1.786-.625-1.956-.626-1.787-.628-1.79-.627-1.87-.313-1.874-.473-1.786-.464-1.875-.318-1.784-.157-1.7-.31-1.786-.158-1.706-.157-1.613-.155h-1.62zM348.413 328.456l-3.535-1.383-.774-.79-.608-.33-1.05-.724v-1.317l.72-.99h2.265l.497.462 5.748-.46-.388-.33-1.215-1.12-.884-.724-.83-.788-.94-.79-.882-.79-.94-.79-.94-.79-.883-.724-.998-.725-.99-.725-.94-.657-.994-.593-.995-.59-.995-.46-.94-.53-18.343.725-4.366-1.514-1.876-.527-2.156.067-1.658.79-7.127 1.843-.388 1.514v1.646l.884 1.514-4.2 3.293.72 1.186 1.158.394v.922l-1.326 1.053-1.215 2.237 2.762.396 1.27-1.712 2.983-2.107 1.77-1.975 1.822.79 1.438-.92 2.763 1.183 2.098.66.61.724.44 1.974 1.215 2.896.83 1.12 1.104 1.842.332 1.712-1.437 7.178-.608 2.566.883 4.873.94 2.898 2.487 4.147.606 3.095 1.106 5.068 1.657 2.57 1.383 2.04.94.33.332-.725-.223-1.646-1.932-3.16-.278-2.766 1.77 2.897 1.38 3.162 1.825 2.5.274 3.226.664 1.844 1.216 1.646 1.88 1.58 2.1 1.578 6.796 2.24 1.878 1.317 1.658 1.45 1.49-.066v1.317l.223 1.516 3.538.064-.444-2.106v-1.383l.33-2.105-4.145-2.568-.054-2.765.5-1.976-2.93-1.316-1.325 1.185-.17 1.514-1.544.26-1.326.332-.387-.593-.22-1.78-.553-2.237-.388-2.37.444-2.436-.112-2.57-.22-2.5.664-1.384 1.49-1.314h9.615l1.05 1.775.166 1.646.11 2.568 2.322.132-.222-1.71-.33-2.107.11-2.04.94-2.043.44-2.567.83-2.303 1.877-2.043.333-2.832 1.16-2.5 2.763-2.7 1.602-1.184.83.855.662.857 1.492-.132v-1.777l-1.104-1.316-1.05-.594.385-1.843-.275-.33-.94-1.184-.61-.79-.55-.724-.607-.726-.608-.724-.608-.724-.608-.658-.608-.66-.608-.657-.662-.657-.662-.66-.664-.657-.663-.66-.664-.66-.663-.656-.718-.2.164.924-.884 1.448-.11 1.25.11 1.053.387 1.382-.11.857-.555.197-1.82-.46-.996-.858-.664-1.12-.995-1.184zM350.072 371.118l1.215-.922.993-.395 1.383.462 1.77.988 3.59 2.106-.552.594-.94.524-.718.265-1.048-.528-1.326-.395-4.366-2.7zM361.51 378.557l.83-.592 1.325-1.317-.277-.33-1.933-.59-.94.26-.11.792-1.493.328-.277.462.277.33 2.597.657z"/></g><g fill="#fff"><path d="M306.005 355.354l5.087-55.43-4.453 55.477 14.543-53.985-13.92 54.126 23.772-51.168-23.166 51.398 32.622-47.02-32.048 47.335 40.963-41.606-40.427 42.005 48.657-35.018-48.166 35.49 55.582-27.35-55.146 27.893 61.63-18.73-61.257 19.33 66.705-9.29-66.4 9.94 70.732.82-70.498-.126 73.64 11.433-73.48-10.714 75.385 22.394-75.308-21.658 75.948 33.524-75.948-32.78 75.308 44.647-75.386-43.91 73.48 55.593-73.64-54.87 70.497 66.178-70.73-65.488 66.398 76.25-66.706-75.598 61.255 85.636-61.63-85.037 55.147 94.2-55.58-93.657 48.165 101.797L308.98 366.06l40.427 108.31-40.963-107.912L340.492 480.1 307.87 366.774l23.165 117.703-23.77-117.473 13.918 120.432-14.544-120.293 4.452 121.78-5.087-121.732-5.086 121.734 4.45-121.78-14.543 120.292 13.92-120.432-23.772 117.473 23.167-117.703L271.517 480.1l32.05-113.642-40.963 107.913 40.425-108.31-48.656 101.323 48.165-101.797-55.58 93.656 55.144-94.2-61.63 85.038 61.256-85.636-66.706 75.597 66.4-76.248-70.73 65.49 70.496-66.18-73.64 54.87 73.482-55.59-75.388 43.91 75.308-44.65-75.946 32.782 75.946-33.525-75.308 21.657 75.388-22.394-73.482 10.714 73.64-11.433-70.497.125 70.73-.82-66.4-9.94 66.707 9.29-61.255-19.33 61.63 18.73-55.146-27.893 55.58 27.35-48.166-35.49 48.655 35.018-40.426-42.006 40.962 41.605-32.048-47.335 32.624 47.02-23.167-51.398 23.77 51.17-13.918-54.127L305.37 355.4l-4.45-55.476zM310.343 488.955l-4.338-103.8-4.336 103.8-1.5-.06 3.798-103.898-12.396 102.528-1.49-.176 11.884-102.83-20.256 100.105-1.47-.293 19.798-100.593-27.8 96.567-1.443-.41 27.42-97.23-34.91 91.97-1.404-.528 34.632-92.786-41.482 86.384-1.354-.645 41.32-87.33-47.413 79.892-1.292-.762 47.38-80.934-52.608 72.59-1.217-.877 52.714-73.694-56.993 64.587-1.128-.988 57.235-65.727-60.492 56.01-1.023-1.1 60.868-57.14-63.05 46.98-.9-1.2 63.546-48.074-64.623 37.64-.76-1.295 65.217-38.665-65.174 28.132-.6-1.375 65.847-29.067-64.7 18.607-.42-1.44 65.417-19.432-63.19 9.214-.223-1.484 63.925-9.925-60.666.108-.01-1.5 61.387-.71-57.157-8.558.214-1.484 57.846 8.058-52.725-16.64.444-1.433 53.365 16.22-47.437-23.994.67-1.342 48.026 23.635-41.388-30.5.883-1.212 41.94 30.183L262.06 315l1.075-1.047 35.21 35.764-27.452-40.546 1.237-.847 27.967 40.31-19.81-43.953 1.363-.624 20.332 43.764-11.886-46.218 1.45-.382 12.418 46.097-3.798-47.332 1.495-.128 4.34 47.29 4.34-47.29 1.494.128-3.8 47.332 12.417-46.097 1.45.382-11.885 46.218 20.33-43.764 1.365.624-19.81 43.952 27.967-40.31 1.237.85-27.45 40.545 35.21-35.764 1.075 1.046-34.687 36.04 41.938-30.182.884 1.213-41.39 30.5 48.028-23.636.67 1.342-47.438 23.994 53.365-16.22.443 1.434-52.726 16.64 57.847-8.058.214 1.484-57.16 8.56 61.39.708-.01 1.5-60.666-.107 63.925 9.926-.224 1.483-63.19-9.215 65.417 19.433-.42 1.44-64.7-18.608 65.85 29.067-.6 1.375-65.18-28.132 65.22 38.665-.762 1.294-64.62-37.64 63.545 48.075-.9 1.2-63.05-46.98 60.87 57.14-1.024 1.097-60.493-56.01 57.236 65.727-1.13.987-56.99-64.588 52.714 73.693-1.218.877-52.608-72.59 47.38 80.933-1.292.762-47.413-79.892 41.32 87.33-1.354.644-.003-.004-41.48-86.38 34.632 92.785-1.405.53-34.912-91.974 27.42 97.23-1.442.41v-.003l-27.798-96.56 19.8 100.59-1.473.294L310.04 384.52l11.885 102.83-1.49.175v-.004L308.042 385l3.8 103.897-1.5.058zm-4.855-121.834l.54.04.495-.04-.003-.03.63-.1-.016-.07.62-.15-.03-.108.606-.2-.052-.14.593-.25-.076-.165.572-.304-.106-.18.544-.356-.134-.187.514-.41-.162-.186.474-.46-.188-.176.43-.512-.21-.158.373-.56-.224-.132.308-.603-.228-.1.23-.64-.22-.064.146-.665-.207-.032.054-.682h-.182l-.047-.68-.146.022-.15-.66-.108.033-.25-.622-.072.036-.344-.567-.04.028-.428-.493-.012.012-.532-.437-.668-.378-.702-.25-.714-.125h-.715l-.714.124-.7.25-.67.38-.532.435-.012-.014-.428.495-.04-.027-.343.566-.072-.037-.25.622-.11-.033-.148.66-.148-.02-.046.677h-.18l.053.683-.207.032.146.665-.223.066.23.638-.227.1.307.604-.222.132.373.56-.21.158.43.51-.19.178.475.46-.163.186.514.41-.134.186.544.355-.106.18.572.305-.077.164.592.252-.052.138.608.2-.03.108.62.15-.014.072.628.1-.006.03z"/></g><g fill="#231F20"><path d="M247.978 473.248c-.597-.596-1.21-.886-1.878-.886-.89 0-1.84.518-2.9 1.58l-4.755 4.763-.036.035 1.18 1.176 4.745-4.752c.685-.686 1.246-1.02 1.714-1.02.3 0 .572.133.854.414.238.238.43.52.543.798l.025.062 1.265-.984.03-.022-.014-.034c-.13-.343-.442-.797-.775-1.13zM242.443 473.168c.857-.765 1.38-1.626 1.51-2.493.132-.884-.147-1.744-.81-2.485-.695-.778-1.372-1.142-1.818-1.31l-.034-.014-.873 1.108.056.027c.392.19.862.464 1.383 1.048.743.832.692 1.805-.135 2.61l-2.73-3.058-.03-.032-.035.023c-.11.074-.342.236-.637.5-1.273 1.136-2.284 2.996-.945 4.498.53.594 1.235.908 2.038.908 1 .002 2.117-.483 3.063-1.328zm-1.786-.56c-.43.31-.93.497-1.347.497-.352 0-.644-.127-.868-.377-.205-.23-.3-.493-.28-.78.033-.492.402-.986.75-1.298l1.745 1.957zM237.368 466.458c-.212-.812-.166-1.133.204-1.427.396-.313.834-.23 1.21.243.338.425.53 1.115.54 1.55v.077l1.355-.646.03-.015-.002-.035c-.05-.606-.332-1.27-.775-1.826-.567-.714-1.25-1.09-1.972-1.09-.518 0-1.04.197-1.514.573-.87.708-1.107 1.56-.77 2.765.212.826.225 1.17-.127 1.448-.146.115-.307.177-.468.177-.23 0-.447-.12-.63-.35-.32-.405-.453-.935-.468-1.265l-.003-.075-1.335.62.003.035c.043.51.302 1.11.692 1.602.487.61 1.14.948 1.837.948.535 0 1.062-.195 1.526-.563.78-.622 1.01-1.572.665-2.747zM236.536 459.86c-.547-.777-1.318-.94-1.87-.94-.094 0-.19.005-.284.015l.79-.64.037-.03-.842-1.195-.04.03c-.485.372-1.08.82-1.81 1.334l-4.3 3.018-.04.03.958 1.363 3.747-2.632c.195-.136.372-.224.517-.255.166-.054.343-.082.512-.082.288 0 .688.08.953.457.22.313.237.64.053.997-.173.334-.526.69-1.05 1.06l-3.34 2.345-.04.03.957 1.36 3.646-2.557c2.448-1.72 1.827-3.166 1.446-3.708zM230.216 456.358c-.115-.832-.032-1.146.37-1.394.426-.265.856-.13 1.175.382.286.46.397 1.17.355 1.605l-.007.078 1.42-.486.032-.01v-.035c.023-.606-.18-1.302-.555-1.907-.53-.855-1.267-1.326-2.073-1.326-.444 0-.89.137-1.33.408-.946.6-1.28 1.42-1.086 2.658.113.845.085 1.187-.297 1.424-.136.083-.274.126-.412.126-.254 0-.488-.15-.658-.425-.272-.44-.34-.983-.318-1.313l.005-.075-1.364.45-.033.013v.034c-.02.513.168 1.14.5 1.673.468.756 1.167 1.172 1.97 1.172.447 0 .905-.138 1.323-.397.85-.528 1.188-1.447.983-2.655zM232.086 450.954l-.027.002c-.747.04-1.946.266-3.056.574l-.07.02.722 1.02.023.032.036-.016c.824-.34 1.954-.707 2.814-.913l.073-.018-.502-.68-.014-.02zM227.067 448.68c.72-.37 1.14-.73 1.32-1.13.177-.366.158-.795-.053-1.207-.19-.37-.413-.625-.56-.74l-.026-.02-1.02.55-.062.03.05.05c.097.09.16.182.263.384.187.368-.004.656-.662.99l-2.272 1.166-.534-1.04-1.036.53-.044.022.534 1.043-1.302.666-.062.032.994.964.968-.495.315.613 1.034-.53.044-.023-.314-.615 2.423-1.24zM227.487 444.99l-.558-1.207-3.254 1.504c-.17.078-.3.122-.414.138-.065.01-.132.014-.197.014-.43 0-.763-.185-.91-.506-.128-.273-.1-.54.082-.79.167-.23.457-.44.86-.628l3.01-1.393.045-.02-.558-1.21-3.2 1.48c-1.74.807-1.982 1.914-1.628 2.682.13.28.343.517.616.682.215.14.467.232.738.27l-3.038 1.405-.045.02.558 1.21 7.846-3.632.047-.02zM220.994 441.686c.524 0 1.087-.116 1.628-.337.93-.377 1.58-.944 1.874-1.642.243-.573.23-1.22-.033-1.87-.308-.758-.715-1.21-1.002-1.456l-.027-.023-.958.6.044.045c.238.242.513.565.744 1.136.327.805.037 1.504-.774 1.88l-1.21-2.975-.015-.04-.042.01c-.1.024-.314.083-.605.202-.692.28-1.27.692-1.628 1.16-.448.588-.54 1.255-.267 1.93.36.888 1.167 1.38 2.27 1.38zm-1.213-2.376c.153-.35.548-.614.883-.753l.768 1.888c-.2.058-.415.09-.612.09-.364 0-.84-.102-1.034-.582-.09-.224-.092-.44-.003-.643zM222.244 432.286l-1.565-4.9-.017-.048-1.558.497-.047.016 1.073 3.362-8.324 2.658-.048.016.492 1.54.016.047 9.93-3.17zM220.034 424.962l-7.278 2.012-.048.012.43 1.56.013.05 7.28-2.015.048-.012-.43-1.558zM211.988 428.057c-.115-.414-.472-.67-.932-.67-.114 0-.23.016-.348.048-.62.186-.94.66-.795 1.183.112.405.467.657.928.657.12 0 .242-.017.363-.05.276-.076.508-.23.655-.44.154-.216.2-.474.13-.728zM220.57 422.924l1.548.017.034.002.013-.03c.25-.595.29-1.467.106-2.277-.232-1.023-.718-1.752-1.442-2.166-.457-.26-1.007-.386-1.682-.386-.54 0-1.153.08-1.876.245l-4.144.946c-.975.224-1.577.336-2.11.432l-.053.01.315 1.378.01.046.9-.146c-.443.39-.872 1.028-.655 1.977.286 1.25 1.545 2.06 3.208 2.058.43 0 .88-.052 1.34-.157 1.013-.23 1.874-.7 2.424-1.323.555-.628.768-1.382.6-2.123-.17-.737-.66-1.27-1.39-1.515l.493-.11c.303-.07.585-.105.84-.105 1.164 0 1.57.706 1.705 1.3.203.89-.064 1.65-.15 1.862l-.03.064zm-3.21-.71c-.293.467-.92.84-1.72 1.02-.336.078-.657.117-.954.117-.927 0-1.567-.38-1.713-1.02-.132-.576.195-1.12.876-1.458.122-.063.268-.112.47-.158l1.187-.27c.168-.04.41-.087.604-.087h.045c.69.02 1.238.4 1.362.946.074.32.02.628-.157.91zM218.128 416.803l-.273-1.646-4.487.75c-.232.038-.414.048-.558.03-.516-.074-1.104-.373-1.207-.992-.164-.985.96-1.324 1.647-1.438l4.164-.693.05-.01-.275-1.645-4.412.733c-2.4.4-3.068 1.672-2.893 2.73.064.386.246.745.524 1.038.224.254.518.458.855.594l-4.252.71-.05.008.275 1.646 10.84-1.807.05-.007zM216.496 409.224c.37-.358.537-.874.468-1.454-.062-.526-.216-.925-.34-1.122l-.016-.027-1.45.196-.07.01.03.062c.077.157.11.294.145.584.063.53-.296.79-1.238.903l-3.237.38-.175-1.48-1.506.18.175 1.48-1.86.218-.07.008.73 1.533.016.032 1.377-.162.104.873 1.505-.178-.103-.873 3.452-.406c1.016-.123 1.672-.363 2.062-.756zM213.312 398.25c-.09 0-.185.002-.28.007-.892.046-1.645.32-2.177.79-.54.477-.803 1.11-.766 1.837.075 1.465 1.266 2.41 3.033 2.41.087 0 .177 0 .267-.006.92-.047 1.69-.336 2.223-.834.507-.475.767-1.118.73-1.814-.06-1.19-1.022-2.39-3.03-2.39zm-.236 3.676c-.848 0-1.768-.28-1.81-1.073-.01-.232.065-.44.227-.62.365-.405 1.09-.58 1.647-.608.074-.004.146-.006.217-.006 1.05 0 1.778.418 1.81 1.042.036.683-.74 1.2-1.883 1.26-.07.003-.14.004-.208.004zM207.362 394.664c-.096.264-.14.526-.135.8.005.298.09.862.608 1.3.436.37 1.136.572 1.972.572l.284-.004.012.66 1.213-.02-.01-.662 4.73-.077h.05l-.023-1.282v-.05l-4.78.08-.016-1.002v-.05l-1.164.02h-.05l.018 1.06-.313.005c-.562 0-1.235-.128-1.245-.74-.004-.236.047-.392.097-.512l.026-.064-1.258-.068-.016.036zM211.24 391.73l.05.003.024-.69 2.72.093c.798.03 1.354-.085 1.703-.343.334-.237.526-.622.542-1.083.014-.418-.06-.75-.13-.918l-.014-.03-1.158-.018h-.07l.02.065c.04.13.05.24.043.465-.014.418-.322.565-1.06.546l-2.55-.085.04-1.172-1.163-.04h-.05l-.04 1.17-1.533-.052.4 1.327 1.086.037-.024.69 1.164.037zM207.53 387.48l8.62.612.05.003.094-1.326-3.574-.254c-.187-.014-.323-.04-.43-.08-.376-.147-.767-.48-.73-.966.046-.658.708-.796 1.256-.796.08 0 .167.003.254.01l3.307.233.05.003.092-1.276.003-.05-3.515-.25c-.135-.01-.267-.014-.393-.014-2.056 0-2.302 1.207-2.33 1.577-.02.308.052.617.21.894.122.228.3.43.517.592l-3.388-.24-.094 1.33zM216.815 378.62l-.013-.036-1.13.07.018.06c.093.326.18.743.108 1.353-.098.852-.7 1.34-1.58 1.278l.37-3.235-.04-.01c-.1-.028-.313-.078-.63-.114-.184-.02-.37-.032-.554-.032-.715 0-2.4.18-2.59 1.836-.192 1.662 1.38 2.61 2.92 2.788.19.02.374.032.55.032 1.562 0 2.59-.834 2.75-2.232.095-.813-.045-1.405-.18-1.76zm-3.5.565l-.232 2.026c-.512-.116-1.292-.49-1.208-1.223.084-.736.866-.815 1.2-.815.08 0 .162.004.24.013zM217.79 373.828l.358-1.74-4.62-1.972c-.974-.428-1.835-.767-2.824-1.11.928.085 1.828.132 3.018.158l4.963.108h.042l.344-1.674.01-.04-9.742-4.375-.057-.026-.34 1.66 4.447 1.833c1.012.405 2.088.828 3.142 1.203-1.024-.083-2.086-.125-3.205-.168l-4.906-.125h-.043l-.347 1.69 4.454 1.873.55.224c.93.38 1.812.74 2.63 1.03-1.046-.067-2.263-.125-3.388-.162l-4.782-.148h-.042l-.344 1.675-.013.06 10.656.028.04-.002zM212.953 360.352c-.527 1.877.673 3.58 2.988 4.233.506.142 1 .215 1.465.215 1.568 0 2.778-.84 3.158-2.195.436-1.55-.326-3.453-3.01-4.21-.503-.143-.995-.214-1.464-.214-1.582 0-2.755.812-3.137 2.172zm1.404.437c.22-.783 1.097-.9 1.6-.9.373 0 .778.06 1.175.172 1.428.403 2.263 1.265 2.03 2.096-.168.592-.768.93-1.648.93-.362 0-.75-.057-1.152-.17-1.113-.315-2.305-1.06-2.005-2.13zM214.37 356.204l.05.014c.597.162 1.266.37 2.307.72l4.867 1.633.53-1.582-3.74-1.255c-.195-.065-.376-.14-.522-.214-.77-.407-1.108-1.067-.888-1.726.058-.17.114-.298.19-.423l.032-.052-1.776-.596-.02.034c-.072.114-.118.2-.167.346-.234.697.095 1.5.842 2.08l-1.243-.355-.462 1.377zM223.002 354.478l.584-1.562-10.296-3.842-.047-.018-.583 1.563 10.296 3.84zM217.84 346.365c-.248.58-.243 1.22.014 1.854.39.963 1.317 1.793 2.61 2.335.727.31 1.435.468 2.103.468 1.203 0 2.15-.538 2.534-1.438.337-.79.196-1.65-.374-2.33l1.03.362.582-1.37-.05-.017c-.425-.157-1.194-.455-1.96-.78l-8.167-3.48-.65 1.532 3.808 1.624c-.64.093-1.185.547-1.48 1.24zm5.956 2.136c-.22.516-.688.79-1.355.79-.414 0-.893-.112-1.384-.32-1.35-.578-1.988-1.497-1.628-2.344.198-.463.67-.74 1.263-.74.142 0 .286.016.428.046.138.034.325.097.475.162l1.035.44c.203.087.355.17.482.26.658.44.933 1.125.686 1.707zM227.643 343.438l.817-1.517-2.24-2.043 1.25-2.32 2.92.7.04.01.852-1.584-10.53-2.474-.037-.01-.985 1.83 7.866 7.364.047.044zm-1.656-6.36l-.984 1.827-1.892-1.75c-.307-.27-.652-.558-.987-.837l-.393-.328.185.054c.492.145 1.05.31 1.562.434l2.51.6zM227.3 333.442l4.373 2.687.844-1.38.026-.043-3.362-2.064c-.174-.108-.333-.22-.458-.327-.658-.567-.84-1.288-.48-1.88.094-.152.177-.262.28-.37l.043-.044-1.562-.96-.034-.02-.03.028c-.098.1-.16.168-.24.3-.383.627-.24 1.483.356 2.217l-1.09-.604-.04-.023-.73 1.193-.03.045.047.025c.556.298 1.18.663 2.087 1.22zM229.315 329.058l-.004-.077c-.03-.55.152-1.184.477-1.657.26-.38.57-.573.925-.573.316 0 .608.154.797.284l.06.04c-.737 1.077-1.042 2.1-.882 2.965.125.675.523 1.247 1.185 1.7.44.3.95.465 1.437.465.65 0 1.21-.294 1.575-.83.426-.624.513-1.37.242-2.055l.675.336.04.02.855-1.25-.054-.026c-.366-.17-.884-.482-1.538-.928l-2.224-1.52c-.786-.538-1.518-.81-2.174-.81-.78 0-1.438.385-1.958 1.147-.48.704-.753 1.546-.727 2.253l.002.033 1.293.482zm3.374-1.265l.81.553c.115.078.223.152.31.257.33.395.506 1.024.153 1.54-.29.43-.793.48-1.323.115-.297-.203-.475-.458-.53-.76-.083-.456.112-1.03.58-1.705zM237.29 327.498l.04.035.888-1.13-.77-.694c.893.155 1.62-.116 2.147-.79.463-.592.61-1.368.41-2.186-.225-.918-.866-1.814-1.856-2.59-.937-.743-1.94-1.152-2.83-1.152-.763 0-1.396.293-1.83.847-.52.664-.64 1.45-.34 2.226l-3.4-2.667-.04-.032-1.028 1.31 6.982 5.48c.614.48 1.26 1.022 1.627 1.34zm-1.006-3.02c-.124-.065-.25-.15-.368-.24l-.957-.752c-.146-.114-.264-.24-.35-.338-.527-.612-.622-1.387-.232-1.884.252-.322.594-.485 1.017-.485.53 0 1.16.263 1.77.743.582.456.977.948 1.142 1.422.164.467.1.907-.187 1.27-.233.298-.593.462-1.013.462-.27 0-.556-.068-.823-.198zM241.825 321.86l.037.033 1.095-1.26-5.73-4.984-1.095 1.257zM235.288 315.936c.254 0 .484-.104.65-.294.358-.412.28-1.005-.187-1.41-.24-.2-.514-.312-.77-.312s-.48.105-.653.303c-.353.406-.267 1 .206 1.41.224.196.492.303.755.303zM240.875 317.327c.9.856 1.888 1.308 2.852 1.308.827 0 1.59-.34 2.202-.987.548-.577.85-1.202.943-1.562l.01-.034-1.25-.866-.02.065c-.127.418-.327.76-.628 1.078-.332.35-.754.533-1.224.533-.587 0-1.198-.284-1.766-.823-.578-.54-.907-1.17-.925-1.78-.014-.448.148-.863.47-1.2.317-.335.646-.546 1.004-.645l.07-.02-.888-1.246-.02-.03-.036.01c-.43.15-.943.494-1.31.88-.73.766-1.05 1.69-.93 2.676.11.927.624 1.866 1.445 2.645zM252.61 308.65c-.18.45-.582.993-1.027 1.382-.552.483-1.16.728-1.806.728-.96 0-1.944-.542-2.842-1.565-1.53-1.75-1.63-3.582-.26-4.783.566-.495 1.132-.706 1.508-.795l.064-.016-.794-1.44-.035.005c-.423.07-1.142.376-1.892 1.033-.987.864-1.53 2.036-1.525 3.298.004 1.322.584 2.68 1.675 3.925 1.22 1.395 2.66 2.163 4.054 2.163.98 0 1.936-.382 2.762-1.106.807-.706 1.25-1.432 1.387-1.838l.01-.034-1.256-1.02-.024.063zM254.012 300.66c-.41 0-.804.132-1.14.383-.312.234-.548.56-.68.94-.122.32-.167.674-.133 1.035l-2.584-3.45-.03-.04-1.334 1 6.584 8.793.03.04 1.333-.998-2.726-3.64c-.144-.19-.233-.344-.283-.48-.173-.49-.18-1.15.325-1.528.595-.445 1.32-.15 2.033.802l2.53 3.378.03.04 1.333-.998-2.678-3.58c-1.05-1.402-2-1.697-2.61-1.697zM263.902 300.254l-2.805-4.44-.027-.04-1.367.863-.042.027 2.446 3.87c.123.194.205.38.23.528.124.457.08 1.11-.448 1.442-.625.398-1.3.02-2.005-1.096l-2.18-3.45-.026-.04-1.368.86-.043.028 2.378 3.765c.803 1.272 1.7 1.943 2.59 1.943.36 0 .71-.107 1.043-.317.97-.614 1.056-1.61 1.03-2.105l.628.86 1.236-.78-.03-.044c-.346-.506-.767-1.124-1.24-1.872zM265.605 296.805c-.288-.82-.088-1.535.52-1.867.156-.085.283-.14.427-.18l.06-.018-.896-1.644-.038.01c-.13.035-.22.066-.357.14-.644.35-.947 1.162-.796 2.095l-.668-1.103-1.274.693.028.045c.33.533.68 1.14 1.2 2.096l2.456 4.507 1.463-.798-1.89-3.465c-.095-.175-.178-.357-.235-.51zM273.128 296.18c-.267.342-.577.59-.974.777-.238.113-.484.17-.734.17-.783 0-1.494-.554-1.95-1.52-.346-.71-.424-1.417-.222-1.99.15-.425.45-.754.873-.953.418-.197.797-.276 1.17-.238l.072.007-.387-1.52h-.038c-.022-.002-.045-.002-.07-.002-.45 0-1.014.134-1.47.35-.956.452-1.59 1.2-1.833 2.16-.23.904-.088 1.965.396 2.987.736 1.553 1.913 2.444 3.23 2.444.457 0 .917-.108 1.37-.32.72-.342 1.23-.815 1.444-1.117l.02-.028-.853-1.26-.042.054zM278.52 291.093c-.808-2.1-1.95-2.414-2.56-2.414-.233 0-.466.043-.692.13-.365.14-.68.39-.91.722-.205.27-.345.6-.41.957l-1.546-4.022-.018-.046-1.555.6 3.938 10.252.018.046 1.555-.6-1.63-4.243c-.085-.223-.13-.395-.14-.54-.034-.52.14-1.155.727-1.38.128-.05.255-.075.377-.075.68 0 1.116.76 1.36 1.397l1.514 3.937.018.046 1.555-.6-1.6-4.17z"/></g><g fill="#231F20"><path d="M239.677 491.958c-28.157-23.384-44.306-59.113-44.306-98.028 0-67.526 49.63-122.463 110.63-122.463 61 0 110.63 54.937 110.63 122.463 0 23.672-6.116 46.647-17.686 66.438l-2.598-1.518c11.3-19.332 17.273-41.78 17.273-64.92 0-65.868-48.28-119.455-107.62-119.455-59.343 0-107.622 53.587-107.622 119.455 0 38.017 15.753 72.903 43.22 95.713l-1.92 2.315zM275.552 483.737c-31.653-14.618-52.106-49.676-52.106-89.313 0-52.967 37.036-96.06 82.558-96.06 45.523 0 82.56 43.093 82.56 96.06 0 24.02-7.657 47.012-21.562 64.74l-2.453-1.925c13.476-17.182 20.897-39.49 20.897-62.816 0-51.248-35.638-92.94-79.442-92.94-43.803 0-79.44 41.692-79.44 92.94 0 38.426 19.742 72.373 50.296 86.483l-1.308 2.83z"/></g><path fill="#fff" d="M338.074 235.393c0-5.096-1.89-9.84-5.674-14.194l-4.562-11.322-.45 6.623c-2.45-1.92-5.31-3.753-8.597-5.49l-14.09-3.987 7.425 13.884c6.764 5.682 11.278 11.05 13.764 16.364-.64 3.07-2.814 6.634-6.502 10.657-1.377-2.91-2.78-5.82-4.16-8.678-1.412-2.928-2.797-5.797-4.093-8.545l-11.132 4.416c5.134 15.783-1.653 22.21-9.51 29.65-5.56 5.264-11.86 11.23-11.77 20.42.14 14.302 12.59 25.877 27.447 25.32.355.014.71.02 1.07.02.454 0 .91-.01 1.375-.035 14.577-.764 25.815-13.245 25.052-27.82-.272-5.186 1.304-10.487 2.972-16.1 2.7-9.085 5.725-19.346 1.434-31.182z"/><g fill="#231F20"><path d="M315.983 216.312c8.715 7.32 13.592 13.933 16.07 20.082.46-6.772-3.822-13.6-16.07-20.082zM332.404 238.604l-.815-2.022c-2.668-6.62-7.877-13.124-15.928-19.886l-3.6-3.023 4.154 2.2c11.357 6.01 16.854 12.925 16.335 20.557l-.146 2.174zm-12.363-19.366c5.28 4.947 9.063 9.802 11.468 14.71-.58-5.33-4.36-10.18-11.467-14.71zM332.053 236.394c-.508 7.487-6.815 14.905-14.567 21.718-3.72-8.29-8.103-17.055-11.777-24.85 10.34 31.787-21.154 35.018-20.988 51.866.11 11.286 10.188 19.933 21.454 19.374.7.036 1.41.037 2.125 0 11.292-.592 19.967-10.225 19.375-21.516-.815-15.525 11.38-29.212 4.378-46.592zM307.24 305.03c-.366 0-.73-.01-1.09-.028-.305.018-.657.026-1.008.026-11.428 0-20.812-8.924-20.92-19.895-.068-6.79 4.847-11.444 10.05-16.372 8.048-7.62 17.17-16.256 10.96-35.343l.93-.368c1.305 2.77 2.7 5.662 4.124 8.61 2.484 5.15 5.05 10.47 7.378 15.626 9.05-8.054 13.47-14.714 13.89-20.927l.148-2.177.815 2.022c4.264 10.583 1.51 19.844-1.15 28.8-1.808 6.08-3.515 11.822-3.193 17.953.294 5.594-1.61 10.968-5.358 15.13s-8.895 6.618-14.488 6.912c-.366.02-.728.03-1.09.03zm-1.09-1.027c.784.036 1.425.037 2.124 0 5.328-.28 10.228-2.616 13.798-6.58 3.57-3.966 5.383-9.083 5.104-14.41-.33-6.303 1.48-12.397 3.232-18.29 2.45-8.25 4.98-16.76 1.872-26.25-1.188 6.014-5.843 12.437-14.464 20.013l-.51.447-.276-.618c-2.394-5.337-5.063-10.87-7.645-16.22-.608-1.26-1.212-2.512-1.806-3.747 3.27 16.095-5.13 24.045-12.62 31.138-5.26 4.98-9.802 9.282-9.74 15.636.107 10.747 9.637 19.45 20.93 18.88z"/></g><g fill="#231F20"><path d="M316.567 231.75c-1.206-7.226-13.183-14.41-12.44-23.788-14.014 8.58 9.526 19.246 12.697 27.295l-.257-3.507zM317.562 238.495l-1.203-3.056c-1.01-2.558-4.222-5.446-7.624-8.503-4.874-4.38-9.914-8.91-9.502-13.41.206-2.25 1.72-4.21 4.63-5.992l.837-.513-.076.98c-.41 5.17 3.215 9.67 6.72 14.02 2.663 3.307 5.18 6.43 5.716 9.645l.502 6.828zm-13.97-29.59c-2.103 1.455-3.205 3.002-3.36 4.71-.368 4.002 4.483 8.362 9.174 12.578 2.66 2.393 5.21 4.683 6.757 6.867l-.094-1.274c-.49-2.912-2.925-5.935-5.503-9.136-3.413-4.235-6.935-8.607-6.974-13.746z"/></g><path fill="#fff" d="M315.194 275.67c-6.528 6.09-10.882 4.808-14.918 9.02-3.533 3.686-1.464 12.432 5.343 12.74 9.574.436 8.244-7.838 8.704-10.444 1.306-7.402 7.398-7.402 6.528-20.894 0 0 .87 3.49-5.658 9.578z"/><path fill="#231F20" d="M306.33 297.883c-.236 0-.48-.005-.73-.017-3.103-.14-5.575-1.955-6.784-4.977-1.214-3.035-.742-6.53 1.147-8.502 1.936-2.02 3.984-2.835 6.154-3.7 2.502-.995 5.338-2.124 8.78-5.336 4.85-4.522 5.503-7.538 5.556-8.645l-.034-.587.855-.133c.012.044.064.284.05.715.4 8.062-1.798 11.308-3.738 14.172-1.21 1.79-2.355 3.478-2.833 6.187-.066.38-.095.907-.126 1.517-.17 3.253-.487 9.306-8.297 9.306zm14.153-28.19c-.783 1.632-2.26 3.746-4.992 6.295-3.56 3.323-6.478 4.484-9.052 5.51-2.17.863-4.042 1.608-5.848 3.492-1.66 1.732-2.058 4.848-.967 7.576 1.077 2.69 3.27 4.306 6.015 4.43 7.67.346 7.937-4.978 8.12-8.463.032-.64.06-1.19.137-1.622.51-2.892 1.705-4.655 2.97-6.523 1.687-2.49 3.42-5.052 3.618-10.693zM295.205 309.328h21.6v162h-21.6zM261.005 349.607h90v21.6h-90z"/><g fill="#fff"><path d="M341.985 516.373H270.02l-18.018-18h108zM344.676 522.873H267.33l-31.03-31h139.406l-31.03 31zm-71.966-13h66.585l5.005-5h-76.595l5.005 5z"/></g><g fill="#fff"><path d="M379.83 510.834v-6c10.75 0 19.5-8.748 19.5-19.5s-8.75-19.5-19.5-19.5-19.5 8.748-19.5 19.5h-6c0-14.06 11.438-25.5 25.5-25.5s25.5 11.44 25.5 25.5-11.44 25.5-25.5 25.5zM379.83 517.334h-6.5v-19h6.5c7.167 0 13-5.832 13-13s-5.833-13-13-13-13 5.832-13 13v6.5h-19v-6.5c0-17.645 14.354-32 32-32s32 14.355 32 32-14.356 32-32 32z"/></g><g fill="#fff"><path d="M290.253 476.287h31.5v9h-31.5zM283.753 469.787h44.5v22h-44.5z"/></g><g fill="#fff"><path d="M369.003 491.822c0-2.484-1.62-4.5-3.615-4.5h-118.77c-1.997 0-3.616 2.016-3.616 4.5s1.62 4.5 3.616 4.5h118.77c1.996 0 3.615-2.015 3.615-4.5zM365.388 502.822h-118.77c-5.578 0-10.116-4.935-10.116-11s4.538-11 10.116-11h118.77c5.577 0 10.115 4.935 10.115 11s-4.538 11-10.115 11z"/></g><path fill="#231F20" d="M306.005 510.803l8.5-11.98-2.85 12.054 19.64-11.61-14.13 11.83 30.298-10.956-25.064 11.32 40.21-10.034-35.38 10.527 49.132-8.86-44.822 9.473 56.843-7.47-53.163 8.19 63.155-5.9-60.194 6.704 67.913-4.178-65.744 5.05 70.996-2.355-69.674 3.274 72.333-.476-71.89 1.418 71.89 1.416-72.333-.474 69.674 3.273-70.997-2.355 65.743 5.048-67.912-4.175 60.195 6.7-63.155-5.896 53.163 8.19-56.843-7.472 44.822 9.475-49.132-8.862 35.38 10.527-40.21-10.033 25.063 11.318-30.3-10.955 14.132 11.832-19.64-11.614 2.85 12.056-8.5-11.982-8.5 11.982 2.85-12.056-19.64 11.613 14.13-11.833-30.298 10.955 25.063-11.318-40.21 10.033 35.38-10.526-49.133 8.863 44.824-9.475-56.843 7.47 53.164-8.19-63.155 5.898 60.195-6.7-67.912 4.174 65.742-5.048-70.996 2.355 69.674-3.273-72.333.474 71.89-1.416-71.89-1.418 72.333.477-69.674-3.273 70.996 2.354-65.742-5.048 67.912 4.178-60.195-6.703 63.156 5.898-53.163-8.19 56.844 7.47-44.822-9.473 49.13 8.86-35.378-10.526 40.21 10.033-25.063-11.32 30.3 10.958-14.132-11.832 19.64 11.61-2.85-12.054zM341.985 516.373H270.02l-18.018-18h108zM379.83 510.834v-6c10.75 0 19.5-8.748 19.5-19.5s-8.75-19.5-19.5-19.5-19.5 8.748-19.5 19.5h-6c0-14.06 11.438-25.5 25.5-25.5s25.5 11.44 25.5 25.5-11.44 25.5-25.5 25.5zM290.253 476.287h31.5v9h-31.5zM369.003 491.822c0-2.484-1.62-4.5-3.615-4.5h-118.77c-1.997 0-3.616 2.016-3.616 4.5s1.62 4.5 3.616 4.5h118.77c1.996 0 3.615-2.015 3.615-4.5z"/><g fill="#231F20"><path d="M268.2 542.14l-.832 2.972h-1.07l2.737-9.44h1.238l2.737 9.44h-1.107l-.857-2.97H268.2zm2.643-.95l-.798-2.72c-.178-.615-.297-1.176-.417-1.723h-.023c-.12.547-.238 1.135-.405 1.71l-.786 2.73h2.43zM275.293 536.707v1.623h1.5v.94h-1.5v3.655c0 .84.202 1.316.786 1.316.285 0 .45-.026.606-.083l.048.938c-.203.084-.524.17-.93.17-.487 0-.88-.197-1.13-.52-.285-.377-.404-.98-.404-1.78v-3.696h-.893v-.94h.893v-1.26l1.023-.363zM277.97 535.166h1.047v9.945h-1.047v-9.944zM284.826 543.486c0 .588.024 1.162.083 1.625h-.94l-.084-.854h-.036c-.32.533-.94 1.01-1.76 1.01-1.168 0-1.763-.967-1.763-1.947 0-1.64 1.238-2.536 3.463-2.522v-.14c0-.548-.13-1.57-1.31-1.556-.546 0-1.106.182-1.51.504l-.24-.826c.477-.35 1.18-.588 1.905-.588 1.76 0 2.19 1.414 2.19 2.76v2.534zm-1.012-1.836c-1.143-.027-2.44.21-2.44 1.527 0 .812.452 1.176.976 1.176.762 0 1.25-.56 1.416-1.135.036-.14.048-.28.048-.39v-1.178zM286.514 540.166c0-.715-.012-1.275-.047-1.836h.928l.06 1.12h.024c.285-.63.95-1.26 1.903-1.26.797 0 2.035.562 2.035 2.886v4.035h-1.047v-3.907c0-1.094-.344-2.004-1.332-2.004-.68 0-1.214.573-1.404 1.26-.048.153-.072.364-.072.575v4.076h-1.047v-4.944zM294.333 536.707v1.623h1.5v.94h-1.5v3.655c0 .84.203 1.316.786 1.316.285 0 .45-.026.606-.083l.047.938c-.202.084-.523.17-.928.17-.488 0-.88-.197-1.13-.52-.286-.377-.405-.98-.405-1.78v-3.696h-.893v-.94h.893v-1.26l1.023-.363zM301.057 543.486c0 .588.024 1.162.083 1.625h-.94l-.083-.854h-.036c-.32.533-.94 1.01-1.76 1.01-1.167 0-1.762-.967-1.762-1.947 0-1.64 1.238-2.536 3.463-2.522v-.14c0-.548-.13-1.57-1.308-1.556-.547 0-1.107.182-1.512.504l-.238-.826c.476-.35 1.178-.588 1.904-.588 1.76 0 2.19 1.414 2.19 2.76v2.534zm-1.012-1.836c-1.143-.027-2.44.21-2.44 1.527 0 .812.452 1.176.976 1.176.763 0 1.25-.56 1.418-1.135.036-.14.047-.28.047-.39v-1.178zM302.067 546.848c.262-.84.583-2.34.714-3.36l1.167-.142c-.286 1.19-.81 2.746-1.143 3.404l-.737.098zM313.885 544.69c-.464.21-1.393.52-2.476.52-1.215 0-2.215-.366-3-1.247-.69-.785-1.12-2.047-1.12-3.518 0-2.814 1.655-4.873 4.345-4.873.93 0 1.667.238 2.012.434l-.262.994c-.428-.238-.964-.406-1.773-.406-1.95 0-3.225 1.43-3.225 3.797 0 2.396 1.213 3.81 3.094 3.81.68 0 1.144-.11 1.382-.252v-2.814h-1.62v-.98h2.644v4.535zM316.062 541.945c.024 1.666.917 2.354 1.976 2.354.75 0 1.214-.155 1.595-.353l.19.883c-.37.197-1.012.436-1.928.436-1.773 0-2.833-1.387-2.833-3.434 0-2.045 1.024-3.64 2.702-3.64 1.893 0 2.38 1.93 2.38 3.18 0 .25-.012.433-.036.573h-4.046zm3.07-.883c.013-.77-.273-1.988-1.452-1.988-1.07 0-1.523 1.133-1.606 1.988h3.06zM326.653 541.664c0 2.508-1.487 3.602-2.868 3.602-1.547 0-2.762-1.346-2.762-3.488 0-2.256 1.273-3.586 2.856-3.586 1.654 0 2.773 1.413 2.773 3.472zm-4.558.07c0 1.484.714 2.605 1.737 2.605 1 0 1.75-1.106 1.75-2.634 0-1.148-.488-2.592-1.727-2.592-1.224 0-1.76 1.347-1.76 2.62zM327.973 540.445c0-.797-.012-1.484-.047-2.115h.916l.048 1.346h.036c.262-.91.904-1.484 1.606-1.484.106 0 .19.014.286.027v1.16c-.107-.026-.215-.026-.357-.026-.737 0-1.26.645-1.403 1.568-.023.168-.036.38-.036.574v3.615h-1.047v-4.665zM336.697 544.115c0 1.57-.274 2.508-.822 3.11-.57.603-1.38.813-2.106.813-.69 0-1.453-.197-1.917-.56l.262-.954c.38.295.976.547 1.69.547 1.07 0 1.856-.657 1.856-2.382v-.742h-.023c-.31.63-.94 1.135-1.832 1.135-1.428 0-2.452-1.427-2.452-3.304 0-2.297 1.273-3.586 2.606-3.586 1 0 1.534.602 1.796 1.162h.024l.036-1.023h.928c-.035.476-.047 1.036-.047 1.85v3.935zm-1.048-3.11c0-.208-.014-.392-.06-.544-.19-.728-.69-1.317-1.465-1.317-1 0-1.714.996-1.714 2.564 0 1.33.584 2.438 1.702 2.438.655 0 1.238-.477 1.453-1.262.06-.21.083-.447.083-.658v-1.22zM339.516 536.426c0 .42-.25.756-.666.756-.38 0-.63-.336-.63-.756s.26-.77.653-.77c.38 0 .643.336.643.77zm-1.166 8.685v-6.78h1.047v6.78h-1.047zM345.182 543.486c0 .588.023 1.162.082 1.625h-.94l-.083-.854h-.034c-.32.533-.94 1.01-1.762 1.01-1.166 0-1.762-.967-1.762-1.947 0-1.64 1.238-2.536 3.464-2.522v-.14c0-.548-.13-1.57-1.31-1.556-.547 0-1.106.182-1.512.504l-.237-.826c.476-.35 1.18-.588 1.904-.588 1.762 0 2.19 1.414 2.19 2.76v2.534zm-1.012-1.836c-1.143-.027-2.44.21-2.44 1.527 0 .812.452 1.176.976 1.176.762 0 1.25-.56 1.416-1.135.037-.14.05-.28.05-.39v-1.178z"/></g></svg>